<svg height="512" viewBox="0 0 64 64" width="512" xmlns="http://www.w3.org/2000/svg"><g id="Measuring_tape" data-name="Measuring tape"><path d="m32 32v15h15a15 15 0 1 0 -15-15z" fill="#57565c"/><circle cx="47" cy="32" fill="#e0e0e2" r="7"/><path d="m2 40h30v7h-30z" fill="#ffeb99" transform="matrix(-1 0 0 -1 34 87)"/><path d="m47 16a16.019 16.019 0 0 0 -16 16v7h-28v-3a1 1 0 0 0 -2 0v11a1 1 0 0 0 1 1h45a16 16 0 0 0 0-32zm-44 25h3v2a1 1 0 0 0 2 0v-2h3v1a1 1 0 0 0 2 0v-1h3v2a1 1 0 0 0 2 0v-2h3v1a1 1 0 0 0 2 0v-1h3v2a1 1 0 0 0 2 0v-2h3v5h-28zm44 5h-14v-14a14 14 0 1 1 14 14z"/><path d="m47 24a8 8 0 1 0 8 8 8.009 8.009 0 0 0 -8-8zm0 14a6 6 0 1 1 6-6 6.006 6.006 0 0 1 -6 6z"/><path d="m46 42h-6a1 1 0 0 0 0 2h6a1 1 0 0 0 0-2z"/><path d="m37 42h-1a1 1 0 0 0 0 2h1a1 1 0 0 0 0-2z"/></g></svg>