<?xml version="1.0" encoding="iso-8859-1"?>
<!-- Generator: Adobe Illustrator 19.0.0, SVG Export Plug-In . SVG Version: 6.00 Build 0)  -->
<svg version="1.1" id="Capa_1" xmlns="http://www.w3.org/2000/svg" xmlns:xlink="http://www.w3.org/1999/xlink" x="0px" y="0px"
	 viewBox="0 0 368.01 368.01" style="enable-background:new 0 0 368.01 368.01;" xml:space="preserve">
<path style="fill:#CCE4FF;" d="M296.005,312.005v32c0,8.8-7.12,16-16,16h-80c-79.52,0-144-64.48-144-144h-48l80-96l80,96h-48
	c0,44.16,35.84,80,80,80h80C288.885,296.005,296.005,303.205,296.005,312.005z"/>
<g>
	<path style="fill:#007AFF;" d="M168.005,0.005h-80c-13.232,0-24,10.768-24,24v32c0,13.232,10.768,24,24,24h80
		c37,0,67.56,28.048,71.552,64h-39.552c-3.104,0-5.928,1.8-7.24,4.608c-1.32,2.816-0.888,6.136,1.096,8.512l80,96
		c1.52,1.824,3.768,2.88,6.144,2.88s4.624-1.056,6.152-2.88l80-96c1.984-2.384,2.416-5.704,1.096-8.512
		c-1.32-2.808-4.144-4.608-7.248-4.608h-40.208C315.621,63.901,249.133,0.005,168.005,0.005z M280.005,235.509l-62.92-75.504h30.92
		c4.424,0,8-3.584,8-8c0-48.52-39.48-88-88-88h-80c-4.416,0-8-3.592-8-8v-32c0-4.408,3.584-8,8-8h80c74.992,0,136,61.008,136,136
		c0,4.416,3.576,8,8,8h30.92L280.005,235.509z"/>
	<path style="fill:#007AFF;" d="M8.005,224.005h40.208c4.176,80.104,70.664,144,151.792,144h80c13.232,0,24-10.768,24-24v-32
		c0-13.232-10.768-24-24-24h-80c-37,0-67.56-28.048-71.552-64h39.552c3.104,0,5.928-1.8,7.24-4.608
		c1.32-2.816,0.888-6.136-1.096-8.512l-80-96c-3.048-3.648-9.248-3.648-12.296,0l-80,96c-1.984,2.384-2.416,5.704-1.096,8.512
		C2.077,222.205,4.901,224.005,8.005,224.005z M88.005,132.501l62.92,75.504h-30.92c-4.424,0-8,3.584-8,8c0,48.52,39.48,88,88,88h80
		c4.416,0,8,3.592,8,8v32c0,4.408-3.584,8-8,8h-80c-74.992,0-136-61.008-136-136c0-4.416-3.576-8-8-8h-30.92L88.005,132.501z"/>
</g>
<g>
</g>
<g>
</g>
<g>
</g>
<g>
</g>
<g>
</g>
<g>
</g>
<g>
</g>
<g>
</g>
<g>
</g>
<g>
</g>
<g>
</g>
<g>
</g>
<g>
</g>
<g>
</g>
<g>
</g>
</svg>
